<?xml version="1.0" standalone="no"?>
<!DOCTYPE svg PUBLIC "-//W3C//DTD SVG 20010904//EN"
 "http://www.w3.org/TR/2001/REC-SVG-20010904/DTD/svg10.dtd">
<svg version="1.0" xmlns="http://www.w3.org/2000/svg"
 width="618.000000pt" height="618.000000pt" viewBox="0 0 618.000000 618.000000"
 preserveAspectRatio="xMidYMid meet">
<metadata>
Created by potrace 1.14, written by Peter Selinger 2001-2017
</metadata>
<g transform="translate(0.000000,618.000000) scale(0.100000,-0.100000)"
fill="#000000" stroke="none">
<path d="M1392 5299 c-53 -27 -92 -88 -92 -146 0 -34 6 -46 32 -68 25 -21 38
-25 62 -21 33 6 76 47 76 72 0 12 243 14 1845 14 l1845 0 0 -1844 0 -1844 -29
-10 c-36 -13 -64 -62 -55 -96 3 -13 16 -34 29 -46 52 -48 171 -6 209 73 15 32
16 194 16 1923 l0 1887 -25 43 c-16 28 -39 49 -68 63 l-43 21 -1880 0 -1879 0
-43 -21z"/>
<path d="M953 4865 c-27 -16 -49 -40 -62 -68 -20 -40 -21 -60 -21 -290 l0
-247 -134 0 c-183 0 -216 -14 -216 -93 0 -23 8 -41 26 -58 24 -23 33 -24 175
-27 l149 -3 0 -170 0 -169 -140 0 c-183 0 -210 -12 -210 -94 0 -21 8 -40 23
-54 22 -21 33 -22 175 -22 l152 0 0 -175 0 -175 -150 0 c-147 0 -152 -1 -175
-25 -36 -35 -35 -96 1 -124 24 -19 40 -21 175 -21 l149 0 0 -175 0 -175 -149
0 c-135 0 -151 -2 -175 -21 -36 -28 -37 -89 -1 -124 23 -24 28 -25 175 -25
l150 0 0 -175 0 -175 -153 0 c-148 0 -154 -1 -175 -23 -13 -14 -22 -36 -22
-54 0 -81 28 -93 210 -93 l140 0 0 -170 0 -170 -134 0 c-183 0 -216 -14 -216
-93 0 -23 8 -41 26 -58 24 -23 33 -24 175 -27 l149 -3 0 -248 c0 -239 1 -249
23 -291 16 -30 37 -51 67 -67 l43 -23 1884 0 c1857 0 1884 0 1923 20 21 11 49
34 62 52 l23 33 3 1906 2 1906 -22 33 c-13 18 -36 43 -51 54 l-28 21 -1902 2
-1902 3 -42 -25z m3777 -1990 l0 -1845 -1845 0 -1845 0 0 230 0 230 160 0
c184 0 211 8 230 64 9 28 8 40 -4 63 -23 46 -52 53 -226 53 l-160 0 0 170 0
170 166 0 c94 0 174 4 185 10 34 19 52 66 39 105 -18 55 -53 65 -234 65 l-156
0 0 170 0 170 169 0 c164 0 171 1 197 24 37 31 38 84 4 120 -23 25 -26 26
-194 28 l-171 3 -3 173 -2 172 173 0 c173 0 174 0 197 25 34 37 33 90 -4 121
-26 23 -33 24 -197 24 l-169 0 0 169 0 170 169 3 c162 3 171 4 194 26 14 13
28 35 31 48 8 29 -16 79 -43 94 -11 6 -91 10 -185 10 l-166 0 0 170 0 170 160
0 c184 0 211 8 230 64 9 28 8 40 -4 63 -23 46 -52 53 -226 53 l-160 0 0 230 0
230 1845 0 1845 0 0 -1845z"/>
</g>
</svg>
