<?xml version="1.0" standalone="no"?>
<!DOCTYPE svg PUBLIC "-//W3C//DTD SVG 20010904//EN"
 "http://www.w3.org/TR/2001/REC-SVG-20010904/DTD/svg10.dtd">
<svg version="1.0" xmlns="http://www.w3.org/2000/svg"
 width="700.000000pt" height="700.000000pt" viewBox="0 0 700.000000 700.000000"
 preserveAspectRatio="xMidYMid meet">
<metadata>
Created by potrace 1.14, written by Peter Selinger 2001-2017
</metadata>
<g transform="translate(0.000000,700.000000) scale(0.100000,-0.100000)"
fill="#000000" stroke="none">
<path d="M4559 5696 c-2 -2 -22 -6 -44 -9 -174 -22 -381 -104 -550 -215 -142
-94 -327 -302 -397 -447 -12 -25 -24 -45 -27 -45 -4 0 -16 25 -28 55 -27 66
-117 191 -164 227 -19 14 -43 34 -54 45 -43 40 -213 146 -309 193 -327 159
-679 204 -1001 130 -366 -85 -664 -310 -809 -613 -122 -254 -99 -344 82 -329
162 14 833 5 957 -13 11 -1 36 -3 55 -4 33 -1 28 -5 -60 -49 -163 -81 -226
-127 -355 -256 -166 -168 -265 -351 -314 -581 -6 -27 -9 -111 -7 -185 2 -115
7 -148 31 -220 29 -92 59 -155 82 -178 8 -8 34 -17 59 -20 l44 -5 103 101
c175 172 333 297 580 461 69 46 225 141 231 141 3 0 -6 -25 -20 -56 -182 -412
-72 -891 254 -1101 110 -71 180 -86 223 -47 20 18 39 74 37 109 -1 23 10 149
17 185 2 14 7 43 10 64 4 33 17 94 40 200 16 73 74 252 104 321 5 11 19 45 31
75 52 128 205 390 294 504 13 16 30 18 193 17 98 -1 201 -3 228 -5 137 -10
218 -18 300 -31 50 -8 106 -16 125 -19 19 -3 46 -8 60 -11 14 -3 36 -7 50 -10
220 -42 569 -152 765 -240 210 -95 359 -173 507 -267 153 -98 206 -67 233 136
27 199 -8 402 -104 596 -130 263 -369 490 -662 628 -80 37 -271 102 -301 102
-31 0 -19 7 22 13 125 19 250 24 365 13 73 -7 83 -5 107 13 28 22 47 64 42 94
-6 44 -94 176 -164 247 -91 93 -176 152 -294 203 -139 60 -228 78 -407 83 -85
3 -157 3 -160 0z"/>
<path d="M3828 3921 c-45 -36 -45 -73 2 -212 89 -266 188 -691 216 -929 2 -19
8 -64 13 -100 10 -66 17 -129 27 -230 3 -30 7 -75 9 -100 26 -270 26 -914 0
-1220 -2 -25 -7 -83 -11 -130 -3 -47 -8 -93 -9 -102 -6 -27 37 -81 72 -92 42
-11 89 8 107 43 8 14 17 60 21 101 3 41 8 91 10 110 4 39 14 197 21 335 5 106
5 617 -1 725 -2 41 -7 113 -10 160 -4 47 -8 103 -10 125 -7 98 -37 360 -49
421 -2 10 -9 55 -16 99 -7 44 -13 87 -15 95 -2 8 -13 62 -25 120 -58 290 -183
721 -221 769 -28 34 -95 40 -131 12z"/>
</g>
</svg>
